<svg preserveAspectRatio="none" overflow="visible" style="display: block;" width="38" height="38" viewBox="0 0 38 38" fill="none" xmlns="http://www.w3.org/2000/svg">
<g id="oui:email">
<path id="Vector" fill-rule="evenodd" clip-rule="evenodd" d="M35.5062 8.7495L20.5129 21.166C20.0868 21.519 19.5509 21.7122 18.9976 21.7122C18.4443 21.7122 17.9084 21.519 17.4824 21.166L2.49612 8.7495C2.41571 8.99154 2.37482 9.24495 2.375 9.5V28.5C2.375 29.1299 2.62522 29.734 3.07062 30.1794C3.51602 30.6248 4.12011 30.875 4.75 30.875H33.25C33.8799 30.875 34.484 30.6248 34.9294 30.1794C35.3748 29.734 35.625 29.1299 35.625 28.5V9.5C35.626 9.24508 35.5859 8.99167 35.5062 8.7495ZM4.75 4.75H33.25C34.5098 4.75 35.718 5.25044 36.6088 6.14124C37.4996 7.03204 38 8.24022 38 9.5V28.5C38 29.7598 37.4996 30.968 36.6088 31.8588C35.718 32.7496 34.5098 33.25 33.25 33.25H4.75C3.49022 33.25 2.28204 32.7496 1.39124 31.8588C0.500445 30.968 0 29.7598 0 28.5V9.5C0 8.24022 0.500445 7.03204 1.39124 6.14124C2.28204 5.25044 3.49022 4.75 4.75 4.75ZM4.25125 7.125L17.4943 18.0571C17.9184 18.4074 18.451 18.5997 19.0011 18.601C19.5512 18.6023 20.0847 18.4126 20.5105 18.0642L33.8865 7.125H4.25125Z" fill="white"/>
</g>
</svg>
