<svg preserveAspectRatio="none" overflow="visible" style="display: block;" width="29.5" height="29.5702" viewBox="0 0 29.5 29.5702" fill="none" xmlns="http://www.w3.org/2000/svg">
<g id="Group">
<g id="Vector">
</g>
<g id="Vector_2">
</g>
<path id="Vector_3" d="M28.25 14.0747H27.986L25.2515 6.07523L1.781 14.0747L1.25 14.0702M0.5 14.0762H1.25L17.969 0.720227L22.1945 6.64523" stroke="black" stroke-linecap="square"/>
<g id="Group_2">
<path id="Vector_4" d="M18.5 21.5702C18.5 22.5648 18.1049 23.5186 17.4017 24.2219C16.6984 24.9251 15.7446 25.3202 14.75 25.3202C13.7554 25.3202 12.8016 24.9251 12.0983 24.2219C11.3951 23.5186 11 22.5648 11 21.5702C11 20.5757 11.3951 19.6218 12.0983 18.9186C12.8016 18.2153 13.7554 17.8202 14.75 17.8202C15.7446 17.8202 16.6984 18.2153 17.4017 18.9186C18.1049 19.6218 18.5 20.5757 18.5 21.5702Z" stroke="black" stroke-linecap="square"/>
<path id="Vector_5" d="M29 14.0702V29.0702H0.5V14.0702H29Z" stroke="black" stroke-linecap="square"/>
<path id="Vector_6" d="M0.5 14.0702H3.5C3.5 14.8659 3.18393 15.6289 2.62132 16.1915C2.05871 16.7542 1.29565 17.0702 0.5 17.0702V14.0702ZM29 14.0702H26C26 14.8659 26.3161 15.6289 26.8787 16.1915C27.4413 16.7542 28.2044 17.0702 29 17.0702V14.0702ZM0.5 29.0702H3.503C3.50339 28.6758 3.42599 28.2851 3.27521 27.9206C3.12444 27.556 2.90325 27.2248 2.62432 26.9459C2.34539 26.667 2.01418 26.4458 1.64967 26.295C1.28515 26.1442 0.894471 26.0668 0.5 26.0672V29.0702ZM29 29.0702H26C26 28.2746 26.3161 27.5115 26.8787 26.9489C27.4413 26.3863 28.2044 26.0702 29 26.0702V29.0702Z" stroke="black" stroke-linecap="square"/>
</g>
</g>
</svg>
